<svg id="图层_1" data-name="图层 1" xmlns="http://www.w3.org/2000/svg" viewBox="0 0 565.4121 344.1996"><defs><style>.cls-1{fill:#35495e;}.cls-2{fill:#41b883;}</style></defs><title>logo</title><polygon class="cls-1" points="154.204 0 80.39 0 200 206.398 200 79.026 154.204 0"/><polygon class="cls-1" points="485.023 0 411.208 0 365.412 79.026 319.616 0 319.61 0 245.802 0 245.796 0 200 79.026 154.204 0 80.39 0 200 206.398 282.706 63.682 365.412 206.398 485.023 0"/><polygon class="cls-2" points="485.023 0 365.412 206.398 322.798 132.864 282.706 63.682 242.614 132.864 200 206.398 80.39 0 0 0 200 344.2 282.706 201.863 365.412 344.2 565.412 0 485.023 0"/></svg>